<svg width="24" height="24" viewBox="0 0 24 24" fill="none" xmlns="http://www.w3.org/2000/svg">
<path d="M21.4416 0.75H2.55844C1.56 0.75 0.75 1.56 0.75 2.55844V21.4416C0.75 22.44 1.56 23.25 2.55844 23.25H21.4416C22.44 23.25 23.25 22.44 23.25 21.4416V2.55844C23.25 1.56 22.44 0.75 21.4416 0.75ZM21.4416 21.45C8.84719 21.4472 2.55 21.4444 2.55 21.4416C2.55281 8.84719 2.55563 2.55 2.55844 2.55C15.1528 2.55281 21.45 2.55563 21.45 2.55844C21.4472 15.1528 21.4444 21.45 21.4416 21.45ZM4.08563 9.18469H7.42406V19.9228H4.08563V9.18469ZM5.75625 7.71656C6.82219 7.71656 7.69125 6.85031 7.69125 5.78156C7.69125 5.52745 7.6412 5.27584 7.54396 5.04107C7.44671 4.80631 7.30418 4.59299 7.1245 4.41331C6.94482 4.23363 6.73151 4.0911 6.49674 3.99386C6.26198 3.89661 6.01036 3.84656 5.75625 3.84656C5.50214 3.84656 5.25052 3.89661 5.01576 3.99386C4.78099 4.0911 4.56768 4.23363 4.388 4.41331C4.20832 4.59299 4.06579 4.80631 3.96854 5.04107C3.8713 5.27584 3.82125 5.52745 3.82125 5.78156C3.81844 6.85031 4.68469 7.71656 5.75625 7.71656ZM12.8522 14.61C12.8522 13.2094 13.1194 11.8537 14.8547 11.8537C16.5647 11.8537 16.59 13.4541 16.59 14.7V19.9228H19.9256V14.0334C19.9256 11.1422 19.3013 8.9175 15.9234 8.9175C14.3006 8.9175 13.2122 9.80906 12.765 10.6528H12.72V9.18469H9.51656V19.9228H12.8522V14.61Z" fill="#FCFEFF"/>
</svg>
